<?xml version="1.0" encoding="UTF-8"?>
<!DOCTYPE svg PUBLIC "-//W3C//DTD SVG 1.1//EN" "http://www.w3.org/Graphics/SVG/1.1/DTD/svg11.dtd">
<svg xmlns="http://www.w3.org/2000/svg" version="1.1" width="380px" height="213px" style="shape-rendering:geometricPrecision; text-rendering:geometricPrecision; image-rendering:optimizeQuality; fill-rule:evenodd; clip-rule:evenodd" xmlns:xlink="http://www.w3.org/1999/xlink">
<g><path style="opacity:0.192" fill="#2b5ab2" d="M -0.5,-0.5 C 0.166667,-0.5 0.833333,-0.5 1.5,-0.5C 1.5,1.83333 1.5,4.16667 1.5,6.5C 1.16667,6.5 0.833333,6.5 0.5,6.5C 0.166667,6.5 -0.166667,6.5 -0.5,6.5C -0.5,4.16667 -0.5,1.83333 -0.5,-0.5 Z"/></g>
<g><path style="opacity:0.847" fill="#596884" d="M 1.5,-0.5 C 127.167,-0.5 252.833,-0.5 378.5,-0.5C 378.5,0.166667 378.167,0.5 377.5,0.5C 252.5,0.5 127.5,0.5 2.5,0.5C 2.5,2.5 2.5,4.5 2.5,6.5C 2.16667,6.5 1.83333,6.5 1.5,6.5C 1.5,4.16667 1.5,1.83333 1.5,-0.5 Z"/></g>
<g><path style="opacity:1" fill="#215ab7" d="M 377.5,0.5 C 377.5,19.8333 377.5,39.1667 377.5,58.5C 328.99,77.9281 280.657,97.5947 232.5,117.5C 155.807,148.009 79.3067,179.009 3,210.5C 2.5,142.501 2.33334,74.5008 2.5,6.5C 2.5,4.5 2.5,2.5 2.5,0.5C 127.5,0.5 252.5,0.5 377.5,0.5 Z"/></g>
<g><path style="opacity:0.977" fill="#646a73" d="M 378.5,-0.5 C 378.833,-0.5 379.167,-0.5 379.5,-0.5C 379.5,19.5 379.5,39.5 379.5,59.5C 379.167,59.5 378.833,59.5 378.5,59.5C 378.5,58.8333 378.167,58.5 377.5,58.5C 377.5,39.1667 377.5,19.8333 377.5,0.5C 378.167,0.5 378.5,0.166667 378.5,-0.5 Z"/></g>
<g><path style="opacity:0.192" fill="#1e57ba" d="M 378.5,59.5 C 378.667,102.835 378.5,146.168 378,189.5C 329.457,165.72 280.957,142.054 232.5,118.5C 281.172,98.832 329.838,79.1653 378.5,59.5 Z"/></g>
<g><path style="opacity:0.494" fill="#52668b" d="M 377.5,58.5 C 378.167,58.5 378.5,58.8333 378.5,59.5C 329.838,79.1653 281.172,98.832 232.5,118.5C 232.5,118.167 232.5,117.833 232.5,117.5C 280.657,97.5947 328.99,77.9281 377.5,58.5 Z"/></g>
<g><path style="opacity:0.38" fill="#676c73" d="M 0.5,6.5 C 0.833333,6.5 1.16667,6.5 1.5,6.5C 1.83333,6.5 2.16667,6.5 2.5,6.5C 2.33334,74.5008 2.5,142.501 3,210.5C 79.3067,179.009 155.807,148.009 232.5,117.5C 232.5,117.833 232.5,118.167 232.5,118.5C 155.682,149.657 79.0151,180.99 2.5,212.5C 2.16667,212.5 1.83333,212.5 1.5,212.5C 0.5036,143.904 0.170267,75.2377 0.5,6.5 Z"/></g>
</svg>
