<?xml version="1.0" encoding="UTF-8"?>
<!DOCTYPE svg PUBLIC "-//W3C//DTD SVG 1.1//EN" "http://www.w3.org/Graphics/SVG/1.1/DTD/svg11.dtd">
<svg xmlns="http://www.w3.org/2000/svg" version="1.1" width="375px" height="335px" style="shape-rendering:geometricPrecision; text-rendering:geometricPrecision; image-rendering:optimizeQuality; fill-rule:evenodd; clip-rule:evenodd" xmlns:xlink="http://www.w3.org/1999/xlink">
<g><path style="opacity:1" fill="#1f5bbc" d="M -0.5,-0.5 C 124.5,-0.5 249.5,-0.5 374.5,-0.5C 374.5,49.8333 374.5,100.167 374.5,150.5C 333.68,146.391 296.68,156.224 263.5,180C 235.923,201.576 211.756,226.41 191,254.5C 172.682,274.668 151.182,290.334 126.5,301.5C 106.358,308.079 85.6915,311.413 64.5,311.5C 62.4378,311.997 60.2711,312.33 58,312.5C 57.5357,311.906 57.369,311.239 57.5,310.5C 57.3893,309.883 57.056,309.383 56.5,309C 36.2095,306.068 17.2095,299.901 -0.5,290.5C -0.5,193.5 -0.5,96.5 -0.5,-0.5 Z"/></g>
<g><path style="opacity:0.993" fill="#096895" d="M 374.5,150.5 C 374.5,173.5 374.5,196.5 374.5,219.5C 343.245,208.391 312.245,209.058 281.5,221.5C 282.193,222.518 282.859,223.518 283.5,224.5C 282.305,224.322 281.138,223.989 280,223.5C 251.427,235.452 226.427,251.785 205,272.5C 204.667,272.167 204.333,271.833 204,271.5C 202.287,272.878 200.953,274.545 200,276.5C 199.586,276.043 199.086,275.709 198.5,275.5C 175.133,293.274 149.133,303.274 120.5,305.5C 122.19,303.658 124.19,302.325 126.5,301.5C 151.182,290.334 172.682,274.668 191,254.5C 211.756,226.41 235.923,201.576 263.5,180C 296.68,156.224 333.68,146.391 374.5,150.5 Z"/></g>
<g><path style="opacity:1" fill="#46566e" d="M 374.5,219.5 C 374.5,228.167 374.5,236.833 374.5,245.5C 341.353,251.299 311.019,244.299 283.5,224.5C 282.859,223.518 282.193,222.518 281.5,221.5C 312.245,209.058 343.245,208.391 374.5,219.5 Z"/></g>
<g><path style="opacity:0.4" fill="#6890c6" d="M -0.5,290.5 C 17.2095,299.901 36.2095,306.068 56.5,309C 57.056,309.383 57.3893,309.883 57.5,310.5C 55.3897,311.117 53.2231,310.783 51,309.5C 48.6667,309.5 46.3333,309.5 44,309.5C 28.6742,305.227 13.8409,299.894 -0.5,293.5C -0.5,292.5 -0.5,291.5 -0.5,290.5 Z"/></g>
<g><path style="opacity:0.475" fill="#628ac3" d="M 126.5,301.5 C 124.19,302.325 122.19,303.658 120.5,305.5C 102.617,311.73 83.9505,313.73 64.5,311.5C 85.6915,311.413 106.358,308.079 126.5,301.5 Z"/></g>
</svg>
